<?xml version="1.0" standalone="no"?>
<!DOCTYPE svg PUBLIC "-//W3C//DTD SVG 20010904//EN"
 "http://www.w3.org/TR/2001/REC-SVG-20010904/DTD/svg10.dtd">
<svg version="1.0" xmlns="http://www.w3.org/2000/svg"
 width="461.000000pt" height="461.000000pt" viewBox="0 0 461.000000 461.000000"
 preserveAspectRatio="xMidYMid meet">
<metadata>
Created by potrace 1.14, written by Peter Selinger 2001-2017
</metadata>
<g transform="translate(0.000000,461.000000) scale(0.100000,-0.100000)"
fill="#000000" stroke="none">
<path d="M2310 4371 c-57 -114 -106 -214 -108 -222 -2 -8 38 65 87 161 50 96
96 179 101 184 7 7 10 -76 10 -243 0 -230 -2 -255 -17 -267 -15 -12 -15 -13
-2 -8 14 4 18 -5 23 -48 8 -63 -1 -88 -74 -209 -48 -81 -63 -116 -38 -91 6 6
35 55 64 109 l53 98 3 -457 3 -458 -43 -52 c-24 -29 -49 -57 -55 -63 -26 -21
-104 -135 -93 -135 2 0 21 23 41 51 20 28 39 49 42 46 3 -3 23 16 44 43 21 26
43 51 49 55 13 8 13 -73 -1 -305 -5 -96 -12 -213 -14 -260 -3 -47 -12 -134
-20 -193 -19 -140 -19 -196 0 -203 26 -11 7 -21 -107 -60 -130 -43 -493 -223
-493 -244 0 -7 -7 -15 -15 -17 -13 -4 -13 -3 0 6 22 15 -2 13 -43 -4 -19 -8
-92 -31 -162 -50 -71 -20 -144 -44 -163 -53 -36 -18 -44 -37 -15 -37 19 0 81
-81 70 -91 -3 -4 -12 5 -18 19 -13 30 -34 25 -26 -5 4 -14 2 -18 -9 -14 -9 3
-12 1 -9 -4 3 -6 15 -10 26 -10 22 0 23 -4 10 -29 -7 -12 -6 -18 2 -18 7 0 30
-4 52 -7 22 -4 35 -4 29 1 -6 4 -14 26 -17 48 -3 22 -3 32 0 22 3 -12 11 -16
23 -12 15 5 21 0 26 -19 3 -14 12 -30 18 -35 18 -15 76 39 87 81 5 22 6 12 2
-30 -6 -64 -6 -64 16 -50 19 11 24 11 34 -2 7 -8 26 -20 42 -25 32 -11 42 -42
13 -37 -10 2 -18 -2 -18 -8 0 -5 7 -10 15 -10 8 0 18 0 23 0 4 0 7 3 8 8 0 4
9 25 19 47 l18 40 12 -45 c7 -28 14 -40 19 -32 4 7 11 10 15 8 4 -3 13 11 20
30 8 22 19 34 30 34 25 0 43 -24 34 -46 -6 -16 -2 -15 30 5 43 26 51 22 10 -5
-16 -10 -36 -17 -46 -16 -16 1 -18 -4 -13 -26 4 -16 3 -22 -2 -14 -7 10 -15 8
-35 -9 -15 -11 -25 -24 -22 -29 3 -5 -8 -18 -25 -30 -22 -16 -28 -17 -24 -6 3
9 11 16 17 16 6 0 8 3 4 6 -3 4 -27 -6 -52 -20 -32 -19 -45 -33 -45 -49 1 -21
2 -20 26 8 15 19 22 23 18 11 -6 -16 -4 -18 12 -12 10 5 33 13 49 19 17 5 39
16 50 24 22 15 35 17 35 4 0 -10 -159 -86 -177 -84 -7 0 -13 -3 -13 -8 0 -5
-5 -9 -11 -9 -6 0 -53 -20 -106 -45 -52 -25 -96 -45 -98 -45 -2 0 -51 -20
-108 -44 -61 -26 -113 -43 -124 -40 -12 3 -24 1 -27 -4 -8 -13 27 -20 152 -28
74 -5 105 -11 109 -20 3 -8 15 -14 28 -14 13 0 67 -9 121 -20 190 -40 262 -29
475 71 212 98 303 110 375 47 28 -25 34 -37 34 -70 0 -45 -11 -71 -49 -112
l-26 -29 34 7 c18 3 66 25 105 49 101 62 103 62 142 27 38 -33 86 -39 157 -19
32 9 41 7 67 -11 l29 -21 108 60 c60 33 123 66 141 72 59 20 78 -6 47 -65 -9
-16 -14 -30 -12 -32 2 -2 54 26 115 61 62 36 118 65 125 65 8 0 21 -8 29 -17
15 -16 13 -25 -22 -100 -33 -71 -43 -84 -77 -98 -193 -83 -263 -101 -638 -165
-262 -45 -578 -67 -745 -53 l-85 7 135 22 c75 11 147 25 160 29 50 15 210 78
207 81 -1 2 -39 -8 -82 -22 -196 -60 -265 -67 -717 -71 -314 -2 -432 -7 -475
-17 l-58 -14 150 -2 c174 -1 333 -7 460 -16 50 -3 230 -12 400 -19 296 -12
315 -14 430 -44 73 -19 157 -34 215 -38 110 -7 366 11 460 32 36 8 107 24 159
35 l93 20 57 -34 c141 -85 131 -83 316 -56 174 25 177 35 12 36 -76 0 -129 6
-164 17 -65 22 -149 84 -185 138 -28 41 -37 89 -18 89 5 0 7 -6 4 -14 -7 -18
109 -39 182 -33 l49 3 -52 2 c-29 1 -53 7 -53 12 0 6 6 10 13 11 6 0 1 5 -12
10 -13 5 -26 7 -29 4 -3 -3 1 -5 9 -5 11 0 11 -2 -1 -10 -8 -5 -22 -10 -30
-10 -13 0 -13 1 0 10 11 8 8 9 -12 4 -26 -6 -28 -4 -28 25 0 29 -7 36 -37 32
-18 -3 -16 18 2 25 14 6 14 8 -1 18 -15 12 -15 16 3 57 28 63 121 204 184 278
118 140 208 253 227 284 46 75 122 270 122 314 0 101 -82 174 -212 189 -85 10
-492 -35 -475 -53 3 -2 42 3 88 12 113 21 341 34 411 25 64 -9 117 -37 143
-76 22 -34 16 -38 -28 -19 -53 22 -68 19 -106 -20 -39 -40 -78 -46 -105 -16
-14 15 -15 24 -6 40 6 12 18 21 27 21 15 0 14 -2 -2 -14 -11 -8 -16 -19 -12
-30 10 -25 36 -31 55 -12 14 13 14 20 4 36 -14 22 -3 27 17 8 11 -11 13 -10 9
2 -4 12 -27 15 -129 14 -250 -3 -443 -49 -921 -223 -196 -71 -214 -74 -172
-30 51 56 286 153 564 234 63 19 108 34 99 35 -37 1 -409 -118 -468 -149 -11
-7 -21 -9 -21 -5 0 3 -7 1 -15 -6 -8 -7 -21 -10 -30 -6 -8 3 -14 0 -12 -7 1
-6 -9 -13 -23 -15 -14 -2 -27 -7 -30 -11 -3 -3 -27 -17 -53 -31 -27 -13 -59
-37 -72 -52 -22 -25 -30 -28 -90 -28 -61 0 -66 2 -75 26 -8 19 -16 25 -30 21
-18 -5 -20 0 -20 59 0 54 3 64 18 64 16 1 16 1 0 14 -15 11 -18 28 -17 92 1
43 4 106 8 139 5 52 9 60 29 63 12 2 36 -3 52 -12 17 -8 30 -11 30 -6 0 4 9 6
20 3 11 -3 20 -10 20 -15 0 -5 7 -3 15 6 8 8 15 21 15 28 0 12 40 30 94 43 11
2 23 10 27 17 10 16 44 -2 44 -23 0 -8 7 -14 15 -14 8 0 14 6 12 13 -1 6 2 12
7 12 5 0 11 9 14 19 3 14 18 21 58 28 36 6 56 5 61 -2 5 -6 8 -4 8 5 1 8 6 4
11 -9 15 -37 4 -51 -38 -51 -21 -1 -56 -8 -78 -17 -22 -8 -50 -15 -62 -15 -13
0 -20 -4 -17 -9 7 -12 51 -12 59 0 10 18 42 8 37 -11 -2 -10 1 -18 7 -18 6 0
11 3 11 8 0 4 15 7 33 7 17 0 44 4 58 8 24 6 29 3 42 -31 12 -27 16 -31 16
-15 1 12 -8 42 -18 66 -11 25 -24 61 -29 80 -9 33 -8 34 17 33 14 -1 29 -5 33
-11 5 -7 8 -6 8 1 0 5 21 11 46 13 42 2 45 0 42 -21 -2 -18 1 -22 17 -20 20 3
20 2 1 -13 -11 -8 -27 -15 -37 -15 -9 0 -22 -6 -29 -14 -9 -12 -8 -15 7 -14
10 0 25 -1 33 -4 8 -3 12 -3 8 -1 -5 3 -8 9 -8 14 0 6 4 8 9 5 9 -6 43 28 60
61 24 46 138 51 155 7 11 -28 26 -13 26 26 0 33 7 47 38 78 31 31 46 38 81 40
50 3 84 -15 103 -55 10 -21 22 -29 47 -31 39 -4 61 12 43 30 -7 7 -12 26 -12
43 0 68 126 123 186 80 19 -13 22 -12 32 10 8 17 20 25 37 25 25 0 36 25 14
32 -8 3 -8 16 1 47 10 37 9 46 -4 59 -14 14 -16 14 -22 -1 -3 -9 -10 -17 -15
-17 -13 0 -55 -40 -43 -41 5 -1 -7 -5 -26 -10 -19 -5 -42 -11 -50 -13 -8 -3
-15 -5 -15 -6 0 -1 -24 -4 -53 -6 -30 -3 -51 -1 -48 4 3 5 -7 15 -22 21 -15 7
-27 12 -27 10 0 -1 -11 3 -23 10 -22 12 -23 11 -18 -7 9 -27 -32 -42 -49 -18
-7 9 -18 16 -25 16 -10 0 -9 -4 1 -17 11 -13 11 -17 2 -20 -7 -3 -13 -12 -13
-20 0 -9 -6 -13 -15 -9 -8 3 -15 1 -15 -4 0 -6 5 -10 12 -10 6 0 3 -9 -7 -20
-10 -11 -27 -20 -37 -20 -23 0 -52 26 -43 39 3 5 1 12 -5 16 -5 3 -10 -3 -10
-14 0 -21 0 -21 -20 -1 -22 22 -50 27 -50 8 0 -9 -3 -9 -8 -2 -4 6 -15 13 -25
17 -10 4 -16 12 -12 19 3 7 -2 3 -11 -9 -10 -15 -27 -23 -45 -23 -16 0 -29 -4
-29 -10 0 -5 -4 -10 -10 -10 -5 0 -7 7 -4 15 7 18 -31 21 -42 3 -5 -8 -2 -9 9
-5 10 3 17 2 17 -3 0 -6 -9 -10 -19 -10 -11 0 -23 -4 -26 -10 -8 -13 -35 -13
-35 0 0 6 7 10 16 10 18 0 14 22 -6 28 -7 3 -10 0 -6 -7 14 -22 -25 -24 -40
-2 -17 24 -44 28 -44 6 0 -20 -10 -19 -25 2 -11 15 -15 16 -31 3 -16 -13 -17
-13 -12 0 3 8 0 21 -8 27 -7 8 -14 8 -16 2 -2 -5 -16 31 -32 81 -30 94 -48
116 -27 34 13 -50 4 -74 -29 -74 -9 0 -25 -9 -35 -20 -13 -14 -22 -17 -35 -10
-11 6 -21 5 -28 -2 -5 -5 -35 -16 -66 -23 -54 -13 -56 -13 -60 8 -3 12 -9 40
-15 62 -9 35 -10 36 -9 10 1 -56 -1 -62 -12 -45 -8 12 -10 9 -10 -12 0 -30
-17 -37 -38 -16 -9 9 -12 9 -12 -1 0 -7 -5 -9 -11 -5 -9 5 -10 90 -4 323 9
368 8 1700 -1 1844 -4 61 -11 97 -18 97 -6 -1 -58 -94 -116 -209z m510 -2348
c-8 -4 -25 -18 -37 -32 -13 -14 -23 -23 -23 -19 0 3 -3 13 -6 22 -4 11 0 16
14 16 12 0 24 5 27 10 3 6 14 10 23 9 14 0 14 -2 2 -6z m-520 -353 l0 -150
-47 -33 c-26 -17 -55 -40 -65 -49 -10 -10 -22 -18 -28 -18 -5 0 -10 -4 -10
-10 0 -5 -7 -10 -16 -10 -11 0 -14 6 -9 20 4 11 2 20 -4 20 -6 0 -11 -7 -11
-15 0 -8 -5 -15 -10 -15 -6 0 -13 7 -16 15 -9 22 -34 18 -34 -5 0 -11 -4 -20
-9 -20 -6 0 -6 12 0 32 6 23 5 34 -4 40 -18 12 -24 10 -32 -9 -6 -17 -7 -16
-18 2 -6 11 -12 24 -12 30 0 5 -30 16 -67 24 -40 9 -68 20 -68 28 0 7 -6 10
-12 8 -19 -7 -42 11 -35 27 10 26 446 233 500 237 4 1 7 -67 7 -149z m1348 18
c-2 -17 -10 -23 -34 -24 l-31 -1 21 22 c28 30 48 31 44 3z m-13 -48 c-11 -5
-36 -8 -55 -8 l-35 0 30 8 c17 4 41 8 55 8 23 1 23 0 5 -8z m-295 -20 c0 -29
-27 -36 -51 -14 -19 17 -19 19 -2 25 34 14 53 10 53 -11z m-155 -37 c-4 -16
-7 -29 -8 -29 -32 -24 -193 -81 -203 -71 -3 2 0 16 5 30 9 24 36 37 181 90 28
10 32 7 25 -20z m65 23 c0 -3 -4 -8 -10 -11 -5 -3 -10 -1 -10 4 0 6 5 11 10
11 6 0 10 -2 10 -4z m-1483 -42 c-3 -3 -12 -4 -19 -1 -8 3 -5 6 6 6 11 1 17
-2 13 -5z m-120 -121 c-3 -10 -5 -2 -5 17 0 19 2 27 5 18 2 -10 2 -26 0 -35z
m645 -10 c-7 -3 -39 -18 -70 -34 -31 -17 -49 -23 -38 -15 10 8 15 19 11 25 -4
7 3 11 17 11 13 1 37 7 53 14 17 7 32 11 35 8 3 -3 -1 -7 -8 -9z m168 -3 c0
-5 -6 -10 -12 -10 -7 0 -24 -3 -38 -6 -24 -5 -24 -5 -6 10 22 18 56 21 56 6z
m88 -22 c-3 -7 -90 -49 -194 -94 -104 -44 -238 -103 -298 -132 -111 -53 -132
-60 -120 -41 6 10 69 42 237 117 37 17 67 36 67 41 0 16 0 16 -101 -34 -51
-25 -94 -43 -96 -41 -2 2 43 27 101 56 90 45 106 56 106 76 0 13 2 24 4 24 2
0 11 3 20 6 13 5 16 -1 16 -30 0 -20 2 -36 5 -36 3 0 49 20 103 44 86 39 117
51 145 55 5 0 7 -5 5 -11z m-398 -48 c-35 -24 -54 -31 -30 -11 14 11 30 21 35
21 6 0 3 -5 -5 -10z m-60 -35 c0 -2 -13 -11 -30 -20 -38 -19 -40 -11 -2 9 31
17 32 18 32 11z m-70 -115 c-8 -5 -19 -10 -25 -10 -5 0 -3 5 5 10 8 5 20 10
25 10 6 0 3 -5 -5 -10z m-130 -40 c-8 -5 -19 -10 -25 -10 -5 0 -3 5 5 10 8 5
20 10 25 10 6 0 3 -5 -5 -10z"/>
<path d="M2140 1534 c0 -6 7 -19 16 -30 14 -18 14 -18 3 6 -14 31 -19 36 -19
24z"/>
<path d="M2283 3333 c-15 -5 -18 -33 -4 -33 5 0 11 9 14 20 3 11 4 20 4 19 -1
0 -8 -3 -14 -6z"/>
<path d="M1805 2623 c-4 -26 -10 -72 -14 -100 -5 -29 -5 -53 -1 -53 9 0 34
189 27 197 -3 3 -8 -17 -12 -44z"/>
<path d="M3435 2340 c3 -5 8 -10 11 -10 2 0 4 5 4 10 0 6 -5 10 -11 10 -5 0
-7 -4 -4 -10z"/>
<path d="M3288 2313 c6 -2 18 -2 25 0 6 3 1 5 -13 5 -14 0 -19 -2 -12 -5z"/>
<path d="M1686 2033 c-4 -18 -12 -33 -17 -33 -5 0 -9 -5 -9 -11 0 -5 4 -8 9
-5 5 4 7 -4 3 -16 -4 -15 -2 -19 7 -13 10 6 11 2 6 -16 -7 -20 -6 -22 7 -12 8
7 17 10 20 7 3 -3 8 13 10 36 2 25 -1 44 -8 48 -6 4 -14 16 -16 27 -3 15 -6
13 -12 -12z"/>
<path d="M1790 2020 c-13 -31 -35 -55 -24 -26 3 9 1 16 -5 16 -6 0 -11 -16
-11 -36 0 -19 -14 -74 -30 -121 -17 -47 -29 -88 -26 -90 2 -2 17 33 34 79 17
46 42 109 57 142 14 32 24 60 22 63 -2 2 -10 -10 -17 -27z"/>
<path d="M1605 2012 c-5 -26 -10 -29 -52 -31 -26 -1 -57 -8 -68 -15 -14 -9
-27 -11 -36 -5 -20 13 -42 11 -33 -3 5 -8 0 -9 -17 -3 -39 13 -118 7 -164 -14
-45 -20 -78 -29 -134 -36 -18 -2 -36 -6 -39 -9 -3 -3 -11 -1 -19 6 -11 8 -12
7 -7 -6 4 -10 1 -16 -7 -16 -7 0 -10 -3 -7 -6 5 -4 133 -16 173 -15 40 0 265
24 338 36 l48 7 -6 -28 c-5 -27 -4 -27 12 6 10 19 23 36 28 37 6 1 18 5 28 8
10 4 17 3 17 -4 0 -6 -4 -11 -10 -11 -5 0 -7 -7 -3 -16 5 -13 7 -13 14 -2 16
25 9 47 -18 60 -24 11 -27 18 -25 51 4 44 -4 49 -13 9z"/>
<path d="M1625 1970 c4 -6 11 -8 16 -5 14 9 11 15 -7 15 -8 0 -12 -5 -9 -10z"/>
<path d="M2610 1921 c0 -5 7 -11 15 -15 8 -3 15 -1 15 3 0 5 -7 11 -15 15 -8
3 -15 1 -15 -3z"/>
<path d="M935 1890 c-3 -5 -2 -17 3 -26 8 -14 10 -14 22 1 11 14 11 16 -1 13
-8 -2 -13 3 -11 10 2 14 -4 16 -13 2z"/>
<path d="M970 1853 c-13 -15 -12 -16 4 -10 10 4 20 7 22 7 2 0 4 5 4 10 0 15
-13 12 -30 -7z"/>
<path d="M3368 1753 c7 -3 16 -2 19 1 4 3 -2 6 -13 5 -11 0 -14 -3 -6 -6z"/>
<path d="M2425 1650 c-3 -5 -1 -10 4 -10 6 0 11 5 11 10 0 6 -2 10 -4 10 -3 0
-8 -4 -11 -10z"/>
<path d="M1340 1399 c0 -5 5 -7 10 -4 6 3 10 8 10 11 0 2 -4 4 -10 4 -5 0 -10
-5 -10 -11z"/>
<path d="M1703 1083 c-16 -6 -17 -33 -3 -33 11 0 26 28 19 34 -2 2 -10 1 -16
-1z"/>
<path d="M1632 1048 c-5 -7 -13 -24 -17 -38 -7 -24 -7 -24 9 -5 8 11 16 16 16
12 0 -5 7 -1 16 7 8 9 12 20 9 26 -8 14 -20 13 -33 -2z"/>
<path d="M1570 1017 c0 -9 -10 -22 -22 -28 -13 -7 -18 -14 -11 -16 19 -7 57
37 44 50 -8 8 -11 6 -11 -6z"/>
<path d="M1477 983 c-12 -12 -7 -33 8 -33 17 0 19 9 7 28 -5 7 -11 9 -15 5z"/>
<path d="M1407 954 c-9 -10 -9 -44 1 -44 4 0 13 4 19 8 10 7 10 12 0 26 -7 9
-16 14 -20 10z"/>
<path d="M1320 911 c0 -14 18 -23 31 -15 8 4 7 9 -2 15 -18 11 -29 11 -29 0z"/>
<path d="M1280 880 c0 -6 7 -10 15 -10 8 0 15 2 15 4 0 2 -7 6 -15 10 -8 3
-15 1 -15 -4z"/>
<path d="M630 701 l-65 -6 51 -8 c28 -4 59 -13 69 -21 17 -12 8 -16 -86 -39
l-104 -25 243 6 c266 6 296 -1 170 -39 -60 -19 -69 -24 -55 -34 22 -15 201
-25 347 -18 95 4 119 8 136 24 25 24 75 39 129 40 22 0 81 11 130 24 65 18 77
23 42 19 -168 -19 -230 -24 -294 -24 -76 0 -232 27 -348 60 -38 11 -84 20
-102 20 -17 0 -38 7 -47 15 -15 16 -83 18 -216 6z"/>
<path d="M3638 683 c23 -2 61 -2 85 0 23 2 4 4 -43 4 -47 0 -66 -2 -42 -4z"/>
<path d="M4125 660 c-3 -5 -1 -10 4 -10 6 0 11 5 11 10 0 6 -2 10 -4 10 -3 0
-8 -4 -11 -10z"/>
<path d="M3600 629 c0 -5 9 -9 20 -9 11 0 20 2 20 4 0 2 -9 6 -20 9 -11 3 -20
1 -20 -4z"/>
<path d="M3720 636 c0 -2 11 -6 25 -8 13 -3 22 -1 19 3 -5 9 -44 13 -44 5z"/>
<path d="M3809 613 c-13 -16 -12 -17 4 -4 16 13 21 21 13 21 -2 0 -10 -8 -17
-17z"/>
<path d="M3756 601 c-3 -5 1 -12 10 -15 22 -8 25 -4 9 11 -8 7 -16 9 -19 4z"/>
<path d="M3474 385 c-4 -8 -4 -22 0 -30 7 -20 65 -20 73 1 7 19 -4 29 -40 38
-20 5 -29 2 -33 -9z"/>
<path d="M3428 323 c6 -2 18 -2 25 0 6 3 1 5 -13 5 -14 0 -19 -2 -12 -5z"/>
<path d="M3939 261 c8 -5 11 -16 8 -26 -4 -9 -3 -14 3 -10 17 11 11 45 -7 45
-15 0 -15 -2 -4 -9z"/>
<path d="M4180 250 c-6 -11 -8 -20 -6 -20 3 0 10 9 16 20 6 11 8 20 6 20 -3 0
-10 -9 -16 -20z"/>
<path d="M2168 233 c7 -3 16 -2 19 1 4 3 -2 6 -13 5 -11 0 -14 -3 -6 -6z"/>
<path d="M3913 208 c-15 -20 -25 -38 -20 -38 3 0 12 11 21 25 17 26 16 35 -1
13z"/>
<path d="M3775 158 l-20 -21 23 12 c12 6 22 16 22 21 0 13 -2 12 -25 -12z"/>
<path d="M3158 163 c7 -3 16 -2 19 1 4 3 -2 6 -13 5 -11 0 -14 -3 -6 -6z"/>
<path d="M3068 143 c7 -3 16 -2 19 1 4 3 -2 6 -13 5 -11 0 -14 -3 -6 -6z"/>
<path d="M3028 133 c7 -3 16 -2 19 1 4 3 -2 6 -13 5 -11 0 -14 -3 -6 -6z"/>
</g>
</svg>
